HIERARCHY
ROOT Hips
{
     OFFSET 1.88212 96.90440 -13.34250
     CHANNELS 6 Xposition Yposition Zposition Zrotation Xrotation Yrotation
     JOINT Spine
     {
          OFFSET 0.00000 11.89050 0.00000
          CHANNELS 3 Zrotation Xrotation Yrotation
          JOINT Spine1
          {
               OFFSET -0.00000 25.65740 0.12766
               CHANNELS 3 Zrotation Xrotation Yrotation
               JOINT HEad
               {
                    OFFSET 0.00000 8.73416 0.01134
                    CHANNELS 3 Zrotation Xrotation Yrotation
                    End Site
                    {
                         OFFSET -0.29000 12.77420 2.51395
                    }
               }
               JOINT LeftShoulder1
               {
                    OFFSET 8.99000 -0.36225 -0.22000
                    CHANNELS 3 Zrotation Xrotation Yrotation
                    JOINT LeftArm
                    {
                         OFFSET 10.28270 -0.00338 0.32212
                         CHANNELS 3 Zrotation Xrotation Yrotation
                         JOINT LeftForeArm
                         {
                              OFFSET 32.76690 0.09914 -1.42434
                              CHANNELS 3 Zrotation Xrotation Yrotation
                              JOINT LeftHand
                              {
                                   OFFSET 27.56430 0.08536 1.02216
                                   CHANNELS 3 Zrotation Xrotation Yrotation
                                   End Site
                                   {
                                        OFFSET 16.74430 -0.60000 1.50291
                                   }
                              }
                         }
                    }
               }
               JOINT RightShoulder
               {
                    OFFSET -8.99000 -0.36225 -0.22000
                    CHANNELS 3 Zrotation Xrotation Yrotation
                    JOINT RightArm
                    {
                         OFFSET -10.28270 -0.00338 0.32212
                         CHANNELS 3 Zrotation Xrotation Yrotation
                         JOINT RightForeArm
                         {
                              OFFSET -32.89710 0.09914 -1.42434
                              CHANNELS 3 Zrotation Xrotation Yrotation
                              JOINT RightHand
                              {
                                   OFFSET -27.49210 0.08536 1.02216
                                   CHANNELS 3 Zrotation Xrotation Yrotation
                                   End Site
                                   {
                                        OFFSET -16.63120 -0.60000 1.50291
                                   }
                              }
                         }
                    }
               }
          }
     }
     JOINT LeftUpLeg
     {
          OFFSET 8.94580 -8.66707 0.10165
          CHANNELS 3 Zrotation Xrotation Yrotation
          JOINT LeftLeg
          {
               OFFSET 0.00000 -44.42270 1.37270
               CHANNELS 3 Zrotation Xrotation Yrotation
               JOINT LeftFoot
               {
                    OFFSET -0.25355 -42.09240 -1.46059
                    CHANNELS 3 Zrotation Xrotation Yrotation
                    JOINT LeftToes
                    {
                         OFFSET -0.04000 -4.41509 8.49910
                         CHANNELS 3 Zrotation Xrotation Yrotation
                         End Site
                         {
                              OFFSET 0.08000 -0.04745 9.77979
                         }
                    }
               }
          }
     }
     JOINT RightUpLeg
     {
          OFFSET -8.94580 -8.66707 0.10165
          CHANNELS 3 Zrotation Xrotation Yrotation
          JOINT RightLeg
          {
               OFFSET 0.00000 -44.42270 1.37270
               CHANNELS 3 Zrotation Xrotation Yrotation
               JOINT RightFoot
               {
                    OFFSET 0.25355 -42.09240 -1.46059
                    CHANNELS 3 Zrotation Xrotation Yrotation
                    JOINT RightToes
                    {
                         OFFSET 0.04000 -4.41509 8.49910
                         CHANNELS 3 Zrotation Xrotation Yrotation
                         End Site
                         {
                              OFFSET -0.08000 -0.13745 9.77979
                         }
                    }
               }
          }
     }
}
MOTION
Frames: 19
Frame Time: 0.01667
92.39715 76.22420 -106.66930 -11.36024 -1.28713 -27.30492 9.72232 16.44924 -5.24266 -0.02376 0.03261 0.04806 -0.17793 3.04057 12.41188 -12.77160 11.03511 12.94549 -107.28858 -57.27515 -84.36462 -38.87365 57.99813 -104.53018 5.98513 8.02435 -1.05243 6.57887 17.20642 19.45106 69.86439 -24.09201 74.10600 21.35227 46.44849 115.76495 -5.71077 5.27420 0.21888 5.48144 -39.17926 20.70175 11.16449 62.82496 1.52631 -2.88700 -1.14031 0.44649 -8.71330 -6.40193 -24.56733 -29.70152 -12.56516 -4.55153 385.60605 54.48453 -367.31110 29.05718 0.08371 0.09652 -3.01406 0.89728 -13.42014 
95.31596 80.05699 -105.22599 -10.01184 -1.10197 -30.90436 9.50328 14.62917 -5.34943 -0.02285 0.03039 0.04368 -2.05943 7.08229 13.23354 -15.11273 11.15298 15.69153 -105.29058 -57.45913 -82.67009 -38.27010 58.27389 -105.69819 6.54725 8.66437 0.70419 4.30979 18.25671 21.94859 69.17454 -24.78876 72.70541 22.57107 46.20881 115.41853 -4.98570 7.53988 0.58849 2.42651 -35.37656 18.84816 12.73965 54.91191 -4.18849 6.16947 0.62915 -0.22862 -18.29828 -14.80561 -12.29862 -27.49122 -12.04880 -7.90798 391.39050 61.98799 -368.78271 31.77654 0.07657 0.20919 1.29796 7.90427 -13.89666 
97.88146 83.57134 -104.01125 -8.64439 -1.08478 -34.10973 9.00069 13.17244 -5.13354 -0.02068 0.02905 0.03994 -3.80458 10.46353 13.82180 -16.95581 11.09593 17.70238 -103.50520 -57.58512 -81.25578 -37.64056 58.51590 -106.71056 6.59975 8.44350 -0.42590 2.51698 18.92704 23.80695 68.50391 -25.40987 71.23959 23.66071 46.03538 115.22109 -5.29309 6.35434 0.27441 -0.49074 -31.92823 16.00139 12.92016 47.59802 -8.64082 14.80360 0.67935 -0.41102 -20.00161 -2.10108 -17.54869 -24.20965 -10.88745 -11.17299 393.45059 66.92166 -369.06552 20.20822 -0.23939 -0.54603 18.82699 7.44273 -7.39172 
100.10201 86.67558 -103.14027 -7.29616 -1.18444 -36.99198 7.37886 12.92294 -3.88774 -0.09053 0.09273 0.07742 -4.19164 12.38469 13.54476 -17.13878 10.20492 18.21826 -101.87876 -57.65223 -79.98087 -37.02270 58.69263 -107.50323 7.02515 8.86462 0.60393 2.51082 18.36473 24.40078 67.73419 -25.86247 69.65631 24.50394 46.00161 115.27036 -4.72362 7.78706 0.53050 -3.24956 -28.92687 12.22608 12.81553 40.73689 -12.03626 23.00744 0.57536 -0.49385 -33.97826 -4.65394 -5.00551 -19.99460 -8.83860 -14.06183 389.39078 69.38852 -365.35123 32.85073 0.06066 0.44145 -6.40971 1.00786 -7.78826 
102.10616 89.28399 -102.64227 -4.38036 -1.50293 -40.89211 4.02128 11.89261 -1.11346 -0.00942 0.01915 0.02601 -4.61776 14.05353 13.32193 -17.02260 9.49956 18.11048 -100.62229 -57.90116 -78.93548 -36.40144 58.78693 -108.08776 7.05675 8.66993 -0.29110 2.81329 17.79051 24.45223 66.87235 -26.02230 68.05906 25.12463 46.04384 115.40876 -5.04942 7.54371 0.47503 -6.59368 -27.33122 8.93093 13.14450 34.36592 -14.19456 30.48322 0.42428 -0.49950 -26.84349 0.14424 -6.64471 -16.52316 -7.08905 -15.50613 379.84647 68.86688 -357.52695 17.84311 -0.24029 -0.27804 -0.54792 -16.51963 2.72436 
103.75595 91.34515 -102.49541 -1.89096 -1.86078 -44.35542 1.03875 10.84633 1.41943 -0.00429 0.01146 0.01853 -4.81602 15.32698 13.06948 -16.40109 8.80953 17.49185 -99.63206 -58.20630 -78.07464 -35.93010 58.74798 -108.35696 7.27319 9.00438 0.18312 3.59730 17.06056 24.11004 65.99859 -25.96648 66.57130 25.45869 46.11551 115.60329 -4.73955 8.55225 0.87112 -9.41578 -26.00739 4.59345 13.95178 28.91237 -15.13156 37.21661 0.29858 -0.44784 -45.85988 0.54581 5.60545 -12.80262 -4.20731 -16.48786 369.94669 63.33604 -350.32516 16.09670 -0.13721 -0.00159 -5.64213 -28.13255 -0.08644 
105.11705 92.88915 -102.62514 0.15575 -2.17002 -47.43331 -1.55005 9.82080 3.70885 -0.00336 0.00890 0.01460 -4.87170 16.28052 12.86728 -15.39001 8.23496 16.64802 -98.96653 -58.48426 -77.50803 -35.73846 58.52777 -108.28860 7.24558 8.98876 -0.47237 4.56748 16.28633 23.48016 65.37431 -25.67764 65.39716 25.59039 46.21010 115.78227 -5.11148 8.43687 1.10644 -11.44593 -24.88082 -0.48628 15.13093 24.69412 -15.12564 43.22947 0.21778 -0.37891 -43.73060 2.29012 -6.27184 -9.27571 -0.35411 -16.95961 363.23340 54.46891 -347.05286 7.41876 -0.21318 0.19130 -5.86968 -37.93165 -3.27132 
106.50803 93.71856 -102.96672 1.75328 -2.37605 -50.24857 -3.73400 8.86035 5.82426 -0.00502 0.01409 0.01209 -4.79771 16.94337 12.74129 -8.40004 8.51546 5.16890 -104.26400 -65.57091 -79.96854 -34.25256 55.56650 -107.39972 7.19741 8.97634 -0.21522 10.39021 11.75840 11.20642 61.93859 -13.68092 65.14580 25.65397 46.16695 115.35316 -5.16332 9.36703 1.51158 -12.70245 -24.02202 -6.16535 16.32167 21.87804 -14.68007 48.85140 0.18834 -0.34914 -59.19658 4.68271 4.53183 -6.48827 3.26284 -17.50583 358.72205 44.50201 -345.18954 2.70386 -0.17522 0.17781 11.06345 -31.46936 -12.01122 
107.80534 94.11023 -103.44558 3.10325 -2.53536 -53.02766 -5.71759 7.84987 7.91367 -0.00220 0.00934 0.00480 -4.63206 17.56514 12.63268 -3.65036 8.00524 -2.10946 -106.73743 -69.81335 -81.18656 -33.29146 53.07635 -107.28904 7.13781 8.92358 0.03435 14.11593 8.00018 3.33782 59.72887 -5.70754 65.36858 25.84069 46.01945 114.56048 -5.31025 9.93775 1.90522 -13.75775 -23.29205 -11.98571 17.04697 19.40357 -13.90430 54.77682 0.14660 -0.40309 -72.60756 2.90537 9.16868 -4.02845 6.85115 -18.12547 355.52261 34.34489 -344.25909 -1.03764 -0.10398 0.14210 16.15154 -29.37145 -20.05879 
109.10074 94.12212 -103.95929 4.21673 -2.64938 -55.76841 -7.48567 6.82309 9.93434 -0.00054 0.00417 0.00086 -4.40547 18.13015 12.56680 -0.23336 7.46365 -6.63176 -106.92899 -72.13631 -81.07084 -32.88721 50.80430 -107.27863 7.04025 8.80125 0.29591 16.56172 5.32093 -1.80688 58.43691 -0.58958 65.80228 26.12020 45.85925 113.69516 -5.53695 10.27844 2.20402 -14.68384 -22.59744 -17.65954 18.06597 17.23115 -13.21096 60.54902 0.09034 -0.40534 -83.64889 -1.70550 9.77023 -1.78133 10.46722 -18.78671 353.20032 24.02732 -343.89536 -3.76416 -0.08630 0.10797 14.50471 -28.68909 -24.68632 
110.45914 93.85411 -104.46581 5.13313 -2.72899 -58.46158 -9.04989 5.80102 11.85585 -0.00093 0.00124 -0.00171 -4.14871 18.62910 12.56446 2.38034 7.13913 -9.36540 -105.81781 -73.10867 -80.25930 -32.88719 48.69420 -107.11342 6.92224 8.57328 0.59785 18.25280 3.70551 -5.20527 58.53152 1.44063 65.97836 27.23790 46.88178 112.65583 -5.84916 10.47060 2.36445 -15.13884 -22.19106 -23.00178 19.12596 15.67873 -12.46067 66.00973 0.04072 -0.36819 -91.83286 -8.90643 8.44698 -0.00087 13.97161 -19.22745 351.71552 13.84965 -344.01773 -5.56544 -0.06857 0.07263 9.54193 -28.70284 -25.79329 
111.70293 92.95493 -104.94524 5.83191 -2.83860 -61.08604 -10.63524 4.94980 13.21376 -0.01122 0.01830 -0.02868 -4.03991 19.23766 12.75581 4.30593 6.99504 -10.61764 -103.80899 -72.23013 -78.72986 -32.60781 47.31579 -105.27522 7.54562 9.23862 0.31196 19.52403 2.85829 -7.40893 60.37786 2.30141 65.77772 28.02066 48.08487 110.41884 -5.38133 12.60107 -2.22772 -14.98757 -21.79619 -28.16290 19.49781 14.32361 -10.59854 71.63203 -0.02320 -0.33335 -95.94322 -7.61946 11.45544 1.30755 17.44520 -19.41736 351.46689 3.68848 -345.54922 -5.18150 0.00368 -0.03566 0.06159 -28.42501 -27.60276 
112.88413 92.10134 -105.32195 6.33147 -3.00036 -63.61423 -12.24806 4.27134 14.00430 -0.00966 0.01982 -0.02940 -4.14312 19.99179 13.09184 5.60852 7.06201 -10.62149 -101.66978 -71.05355 -77.49374 -33.68082 46.58316 -101.37299 8.85588 10.62123 -1.12722 20.53890 2.65739 -8.61783 62.51425 2.75130 65.61548 28.02892 48.17170 107.68314 -3.51698 15.86221 -8.67188 -14.20579 -21.37305 -33.01701 19.37720 13.06363 -7.81767 77.32752 -0.06890 -0.27851 -99.84813 -0.72642 16.94862 2.09894 20.78530 -19.35354 352.13577 -6.19740 -348.08582 -3.78519 0.05429 -0.08986 -5.61236 -26.17331 -25.50361 
114.03943 91.20638 -105.62132 6.63298 -3.21256 -66.02882 -13.86561 3.78430 14.24557 -0.00717 0.02064 -0.02792 -4.51468 20.86010 13.58751 6.36520 7.27214 -9.57789 -99.61508 -69.75674 -76.57167 -34.72994 45.95457 -97.88830 10.22362 11.93407 -2.44438 21.36860 2.95391 -8.92225 64.81020 2.93042 65.44450 27.04404 47.30474 104.85362 0.06034 20.01129 -15.46879 -12.86032 -20.91318 -37.46389 18.86572 11.81558 -4.29592 83.12282 -0.09937 -0.22049 -105.63515 4.31997 21.53990 2.36011 23.89252 -19.01542 353.54874 -15.49510 -351.34909 -2.32003 0.07507 -0.09660 -8.57122 -22.98201 -20.81037 
115.17651 90.28947 -105.83951 6.44310 -3.47424 -68.02019 -15.51283 4.25500 12.80433 -0.01471 0.07433 -0.07860 -5.83587 21.80171 14.53167 5.84229 7.27236 -6.06627 -98.68841 -68.67463 -76.92313 -35.23289 46.19449 -95.62534 11.54559 13.08243 -3.61867 21.56968 4.13147 -5.93870 67.36150 2.01808 65.42707 23.46454 43.29125 101.44299 3.42037 12.79908 -2.82850 -10.31156 -20.47483 -40.51217 16.69093 10.69595 1.26864 89.73303 -0.11897 -0.04645 -113.03262 4.41913 23.42695 1.30347 26.05046 -17.67129 357.09427 -21.92621 -357.11713 -3.36632 -0.01598 -0.02333 -5.00403 -17.45198 -11.79941 
116.30456 89.46725 -106.01145 5.81130 -3.73937 -69.61277 -17.13503 5.92715 10.40997 -0.00535 0.07671 -0.07056 -7.40000 21.71667 16.23776 5.40272 6.46710 -1.85901 -99.53119 -68.39204 -78.21411 -35.55260 47.08675 -94.08526 12.26979 13.25851 -4.56324 21.64679 4.73129 -2.32812 69.49819 1.95498 65.43652 17.81825 37.68462 98.33881 8.82993 27.45274 -14.50086 -7.23531 -20.11138 -42.26933 13.44059 9.04371 7.95818 96.74144 -0.10261 0.12270 -118.72778 7.86221 22.47619 -0.99551 27.47887 -15.32829 361.67734 -24.67445 -364.72812 -6.95006 -0.21842 0.00571 -2.31246 -16.57015 -2.43087 
117.45049 88.86742 -106.17252 4.80078 -3.95408 -70.85374 -18.38961 7.70383 8.24582 0.00658 -0.00795 0.01429 -8.84113 21.84953 17.58011 5.17435 5.93675 1.58385 -101.92857 -68.72753 -80.52685 -35.79523 48.39224 -92.93137 13.02087 13.43557 -5.37636 21.69775 5.41934 0.41109 71.28822 2.54884 65.38966 10.67558 31.34903 95.89178 7.36997 17.58761 3.32398 -4.14593 -19.64747 -42.89687 10.85412 7.21234 14.94680 90.44559 0.01749 -0.21843 -111.37553 10.03670 19.28727 -4.33058 28.21069 -12.04871 367.70279 -25.45878 -371.11063 -10.40397 -0.22243 0.05422 -0.45346 -16.08171 5.35552 
118.62401 88.48335 -106.29675 3.49803 -4.09498 -71.79346 -19.32831 9.54511 6.34630 0.00616 -0.00870 0.02073 -10.17559 21.98670 18.71934 5.07461 5.52482 4.47871 -105.51475 -69.35831 -83.76462 -35.94516 49.92024 -91.99466 13.41583 13.14229 -5.97063 21.80534 6.07228 2.92304 72.79324 3.31841 65.37068 5.74096 28.05740 94.69980 13.95036 18.04216 2.55413 -1.18279 -19.09300 -42.46952 7.17344 5.10088 22.14252 85.27653 0.03856 -0.26764 -102.90420 12.93158 14.29806 -8.25075 28.22771 -8.05289 373.25882 -25.05049 -376.05557 -13.98454 -0.15793 0.02539 0.95362 -16.95757 10.27556 
119.82932 88.30606 -106.30614 1.99920 -4.16519 -72.48367 -20.00339 11.41280 4.72483 0.00792 -0.00528 0.02188 -11.38316 22.18055 19.60817 5.01969 5.26855 6.81948 -109.95739 -70.04087 -87.75515 -35.97084 51.54276 -91.21291 13.85266 12.92251 -6.45354 21.94494 6.70831 5.14121 74.00545 3.95041 65.45988 2.50131 26.33997 94.35703 13.00995 12.95366 10.22701 1.63973 -18.49170 -41.02989 2.85414 2.81138 29.12647 80.68187 0.04490 -0.29064 -93.57114 15.01435 7.68655 -12.40364 27.51377 -3.57279 378.75119 -23.67731 -380.14478 -17.14280 -0.08558 0.00112 1.78899 -18.13835 13.20402 
